<svg width="456" height="120" viewBox="0 0 456 120" fill="none" xmlns="http://www.w3.org/2000/svg">
<g id="Asset 82xxxhdpi 1">
<g id="letters-20thr">
<path id="Vector" d="M231.182 53.2811C231.193 53.1347 231.233 52.9919 231.3 52.861C231.366 52.7301 231.458 52.6137 231.57 52.5187C231.882 52.2272 232.24 51.9892 232.63 51.8144C233.132 51.5872 233.659 51.4191 234.2 51.3137C234.83 51.1866 235.472 51.1238 236.115 51.1263C237.996 51.1263 239.463 51.5764 240.519 52.4767C241.041 52.9246 241.455 53.4854 241.729 54.1166C242.004 54.7479 242.131 55.4332 242.102 56.1208C242.101 56.6401 242.033 57.1571 241.898 57.6586C241.746 58.2034 241.521 58.725 241.229 59.2093C240.874 59.7963 240.466 60.3489 240.008 60.8601C239.435 61.51 238.827 62.1279 238.186 62.7113L234.51 66.0582C234.427 66.135 234.369 66.2351 234.344 66.3455C234.319 66.4558 234.328 66.5711 234.37 66.6761C234.412 66.7811 234.485 66.8709 234.579 66.9336C234.673 66.9963 234.784 67.029 234.897 67.0274H241.746C241.858 67.0262 241.968 67.0585 242.062 67.1201C242.156 67.1816 242.229 67.2697 242.273 67.373V67.4021C242.335 67.5762 242.364 67.7601 242.36 67.9449C242.36 68.591 242.06 68.914 241.459 68.914H231.415C231.271 68.9152 231.132 68.8609 231.027 68.7622C230.894 68.6332 230.79 68.4775 230.722 68.3055C230.653 68.1335 230.622 67.9489 230.63 67.7639C230.634 67.4799 230.698 67.2 230.818 66.9427C230.939 66.6854 231.112 66.4566 231.328 66.2714L236.558 61.3059C237.139 60.7503 237.634 60.2431 238.041 59.7843C238.402 59.3835 238.726 58.951 239.01 58.4921C239.236 58.1252 239.412 57.7297 239.533 57.3161C239.64 56.9321 239.693 56.5354 239.692 56.137C239.707 55.7214 239.633 55.3074 239.473 54.9236C239.312 54.5398 239.071 54.1955 238.764 53.9143C238.144 53.35 237.204 53.0668 235.944 53.0647C235.158 53.0485 234.377 53.1959 233.65 53.4976C233.178 53.6983 232.724 53.937 232.29 54.2115C232.184 54.2796 232.059 54.3112 231.934 54.3012C231.808 54.2913 231.69 54.2405 231.596 54.1566C231.536 54.1036 231.48 54.0464 231.428 53.9854C231.264 53.7878 231.177 53.5378 231.182 53.2811V53.2811Z" fill="white"/>
<path id="Vector_2" d="M252.453 69.2985C251.493 69.3089 250.543 69.1185 249.661 68.7396C248.809 68.3585 248.061 67.7779 247.481 67.0467C246.827 66.2019 246.348 65.2355 246.072 64.2038C245.721 62.8981 245.555 61.5497 245.578 60.1978C245.544 58.7757 245.74 57.3575 246.159 55.998C246.481 54.9671 247.005 54.0106 247.7 53.1842C248.295 52.4896 249.047 51.9478 249.894 51.6044C250.717 51.2792 251.594 51.1137 252.478 51.1166C253.364 51.116 254.242 51.2871 255.063 51.6206C255.916 51.9682 256.673 52.5142 257.273 53.2133C257.966 54.0407 258.488 54.997 258.81 56.0271C259.215 57.379 259.398 58.7874 259.353 60.1978C259.376 61.5497 259.21 62.8981 258.859 64.2038C258.583 65.2355 258.104 66.2019 257.45 67.0467C256.867 67.7807 256.115 68.3617 255.257 68.7396C254.371 69.1173 253.416 69.3075 252.453 69.2985ZM256.975 60.1978C256.996 59.0958 256.873 57.9957 256.61 56.9252C256.419 56.1377 256.091 55.3898 255.641 54.7155C255.28 54.1797 254.784 53.7484 254.204 53.4652C253.654 53.2075 253.053 53.0751 252.446 53.0776C251.84 53.0759 251.242 53.2187 250.702 53.4943C250.128 53.8019 249.639 54.2456 249.277 54.7866C248.827 55.4605 248.498 56.2085 248.308 56.9963C248.048 58.0475 247.926 59.1281 247.946 60.2108C247.946 62.526 248.338 64.2964 249.122 65.5219C249.479 66.085 249.972 66.5488 250.556 66.8702C251.14 67.1916 251.796 67.3601 252.462 67.3601C253.129 67.3601 253.785 67.1916 254.369 66.8702C254.953 66.5488 255.446 66.085 255.803 65.5219C256.589 64.2942 256.983 62.5196 256.985 60.1978H256.975Z" fill="white"/>
<path id="Vector_3" d="M267.704 69.2985C266.347 69.2985 265.248 69.0023 264.406 68.41C263.564 67.8178 263.143 66.8313 263.143 65.4508V52.2344C263.144 52.1085 263.187 51.9866 263.265 51.8882C263.344 51.7898 263.453 51.7206 263.576 51.6916H263.595C263.807 51.6445 264.024 51.6207 264.241 51.6205C265.055 51.6205 265.462 51.9651 265.462 52.6543V55.3971C265.463 55.4709 265.478 55.544 265.506 55.612C265.535 55.68 265.577 55.7418 265.629 55.7937C265.682 55.8456 265.744 55.8866 265.812 55.9145C265.881 55.9423 265.954 55.9565 266.028 55.956H269.859C269.975 55.9551 270.088 55.9896 270.183 56.0549C270.278 56.1202 270.351 56.2131 270.392 56.3211V56.3437C270.452 56.5139 270.481 56.6932 270.479 56.8735C270.479 57.5196 270.189 57.8427 269.607 57.8427H266.034C265.96 57.8418 265.887 57.8557 265.818 57.8834C265.75 57.9111 265.687 57.9521 265.635 58.0041C265.582 58.0561 265.54 58.118 265.512 58.1862C265.483 58.2544 265.469 58.3277 265.469 58.4016V65.2957C265.469 66.0603 265.684 66.5987 266.115 66.911C266.665 67.2593 267.31 67.4255 267.96 67.3859C268.334 67.379 268.706 67.3203 269.064 67.2115C269.276 67.1522 269.484 67.0822 269.688 67.0015C269.814 66.947 269.955 66.9402 270.085 66.9824C270.215 67.0247 270.326 67.113 270.395 67.2309V67.2309C270.496 67.4162 270.546 67.6244 270.541 67.835C270.541 68.255 270.289 68.6006 269.785 68.8688C269.135 69.1752 268.422 69.3224 267.704 69.2985Z" fill="white"/>
<path id="Vector_4" d="M275.868 68.998C275.656 69.0469 275.439 69.0707 275.222 69.0691C274.388 69.0691 273.972 68.7245 273.972 68.0353V50.758C273.972 50.6324 274.014 50.5105 274.092 50.4121C274.17 50.3136 274.279 50.2443 274.401 50.2152H274.421C274.633 50.1684 274.85 50.1446 275.067 50.1442C275.877 50.1442 276.283 50.4888 276.285 51.178V55.4133C276.285 55.5066 276.309 55.5984 276.353 55.6805C276.398 55.7625 276.462 55.8322 276.54 55.8834C276.618 55.9346 276.708 55.9657 276.801 55.9738C276.894 55.982 276.987 55.967 277.073 55.9302C277.338 55.8139 277.622 55.7073 277.929 55.6071C278.619 55.385 279.34 55.2759 280.065 55.2841C280.818 55.2781 281.567 55.387 282.287 55.6071C282.925 55.8053 283.514 56.1355 284.016 56.5763C284.514 57.0275 284.901 57.5882 285.146 58.2142C285.432 58.9502 285.57 59.7349 285.553 60.5241V68.4488C285.554 68.5747 285.512 68.6971 285.434 68.7958C285.356 68.8945 285.246 68.9636 285.124 68.9916H285.104C284.9 69.0381 284.691 69.0619 284.481 69.0626C283.647 69.0626 283.231 68.718 283.231 68.0288V60.5726C283.231 59.4225 282.908 58.5728 282.261 58.0172C281.551 57.4373 280.651 57.1404 279.735 57.1837C279.093 57.1821 278.457 57.3038 277.861 57.5423C277.407 57.7263 276.974 57.9581 276.569 58.2336C276.493 58.2858 276.43 58.3556 276.386 58.4371C276.342 58.5187 276.319 58.6095 276.317 58.7021V68.452C276.318 68.5769 276.276 68.6984 276.2 68.7968C276.123 68.8953 276.015 68.965 275.894 68.9948L275.868 68.998Z" fill="white"/>
<path id="Vector_5" d="M292.257 68.452C292.257 68.5772 292.215 68.6987 292.138 68.7971C292.06 68.8955 291.952 68.9651 291.83 68.9948V68.9948C291.619 69.0434 291.402 69.0672 291.184 69.0659C290.351 69.0659 289.934 68.7213 289.934 68.0321V58.3047C289.916 57.9382 290.002 57.5741 290.183 57.2547C290.402 56.9454 290.685 56.6866 291.013 56.4956C291.65 56.1134 292.34 55.8281 293.061 55.6491C294.01 55.3997 294.988 55.2791 295.969 55.2905C297.52 55.2905 298.295 55.6728 298.295 56.4374C298.297 56.6188 298.267 56.799 298.208 56.9705V56.9705C298.161 57.0898 298.074 57.1892 297.962 57.2522C297.85 57.3151 297.72 57.3377 297.594 57.3161L297.222 57.2677C296.914 57.229 296.603 57.2096 296.292 57.2095C295.499 57.1978 294.707 57.289 293.937 57.4809C293.469 57.6029 293.013 57.765 292.574 57.9655C292.477 58.0099 292.396 58.0809 292.338 58.1702C292.281 58.2596 292.251 58.3634 292.25 58.4695L292.257 68.452Z" fill="white"/>
</g>
<path id="letter-e1" d="M303.176 63.6804C303.097 63.6988 303.022 63.7342 302.957 63.7842C302.893 63.8342 302.84 63.8976 302.802 63.9701C302.764 64.0425 302.743 64.1223 302.739 64.204C302.735 64.2856 302.748 64.3671 302.779 64.4429C303.621 66.4588 305.317 67.358 307.867 67.1404C308.62 67.0852 309.355 66.8844 310.032 66.5492C310.452 66.3416 310.851 66.0939 311.224 65.8094C311.331 65.7275 311.463 65.6864 311.598 65.6935C311.732 65.7006 311.86 65.7555 311.957 65.8482C312.063 65.9444 312.149 66.061 312.21 66.1909C312.271 66.3208 312.305 66.4616 312.31 66.6048C312.315 66.7481 312.292 66.891 312.242 67.0251C312.191 67.1593 312.114 67.282 312.015 67.386C311.756 67.6897 311.441 67.9417 311.088 68.129C310.643 68.3748 310.171 68.5709 309.683 68.7137C309.107 68.8814 308.516 68.9896 307.919 69.0368C305.679 69.2306 303.855 68.7827 302.446 67.6929C301.038 66.6031 300.232 64.9049 300.03 62.5982C299.926 61.6119 300 60.615 300.249 59.6551C300.473 58.8312 300.862 58.0617 301.393 57.3937C301.915 56.7504 302.57 56.227 303.312 55.8591C304.106 55.4689 304.966 55.2332 305.848 55.1646C306.668 55.0859 307.495 55.1615 308.287 55.3875C309.02 55.5976 309.702 55.9561 310.29 56.4406C310.868 56.9244 311.344 57.5185 311.689 58.1884C312.057 58.9108 312.277 59.6995 312.335 60.508C312.366 60.6687 312.363 60.834 312.327 60.9935C312.291 61.1531 312.222 61.3035 312.125 61.4352C311.92 61.6412 311.654 61.775 311.366 61.8164L303.176 63.6804ZM305.984 57.0157C305.437 57.046 304.903 57.1925 304.417 57.4454C303.931 57.6983 303.505 58.0518 303.167 58.4824C302.55 59.3067 302.225 60.3124 302.243 61.3415C302.24 61.428 302.258 61.5138 302.294 61.5924C302.33 61.6711 302.384 61.7404 302.451 61.795C302.518 61.8496 302.597 61.8881 302.681 61.9075C302.766 61.9269 302.853 61.9266 302.937 61.9068L309.563 60.4143C309.639 60.3976 309.71 60.3655 309.773 60.3199C309.835 60.2744 309.888 60.2165 309.927 60.1498C309.966 60.0831 309.991 60.009 310 59.9323C310.009 59.8555 310.002 59.7776 309.98 59.7036C309.77 58.9664 309.353 58.3049 308.778 57.7975C308.072 57.1729 307.14 56.9102 305.984 57.0092V57.0157Z" fill="white"/>
<path id="letter-e2" d="M318.202 62.3882C318.122 62.4056 318.046 62.4404 317.981 62.4902C317.916 62.5399 317.862 62.6033 317.824 62.676C317.786 62.7486 317.764 62.8288 317.76 62.9108C317.756 62.9928 317.77 63.0746 317.801 63.1506C318.644 65.1665 320.34 66.0646 322.89 65.8449C323.643 65.7923 324.378 65.5926 325.054 65.257C325.474 65.0481 325.873 64.8005 326.246 64.5171C326.353 64.4348 326.485 64.3932 326.619 64.3997C326.754 64.4062 326.882 64.4604 326.98 64.5527C327.187 64.7468 327.313 65.0124 327.332 65.2957C327.339 65.4427 327.317 65.5896 327.266 65.7278C327.216 65.866 327.138 65.9926 327.038 66.1001C326.778 66.4022 326.465 66.654 326.114 66.8432C325.667 67.0887 325.195 67.2837 324.705 67.4247C324.13 67.5923 323.539 67.7006 322.941 67.7478C320.701 67.9394 318.877 67.4904 317.469 66.4006C316.06 65.3108 315.255 63.6137 315.052 61.3092C314.947 60.3217 315.023 59.3233 315.275 58.3628C315.496 57.5387 315.884 56.769 316.415 56.1014C316.937 55.4572 317.591 54.9336 318.334 54.5669C319.128 54.1755 319.989 53.9398 320.87 53.8723C321.69 53.7935 322.518 53.8691 323.31 54.0952C324.042 54.3035 324.724 54.6609 325.313 55.1451C325.894 55.6291 326.373 56.2244 326.721 56.8961C327.088 57.6188 327.308 58.4073 327.367 59.2157C327.396 59.3764 327.393 59.5414 327.356 59.7006C327.32 59.8599 327.253 60.0103 327.157 60.1429C326.947 60.3569 326.672 60.4964 326.375 60.5403L318.202 62.3882ZM321.006 55.7202C320.46 55.7519 319.926 55.899 319.441 56.1518C318.955 56.4046 318.528 56.7574 318.189 57.1869C317.572 58.0121 317.247 59.019 317.265 60.0492C317.263 60.1355 317.281 60.221 317.318 60.2993C317.354 60.3776 317.408 60.4466 317.475 60.5011C317.542 60.5556 317.62 60.5941 317.704 60.6138C317.788 60.6334 317.876 60.6337 317.96 60.6146L324.586 59.122C324.661 59.1049 324.733 59.0724 324.795 59.0266C324.858 58.9808 324.91 58.9226 324.949 58.8556C324.988 58.7886 325.013 58.7144 325.022 58.6374C325.032 58.5604 325.025 58.4823 325.002 58.4081C324.791 57.6716 324.374 57.0106 323.801 56.502C323.094 55.8774 322.163 55.6147 321.006 55.7137V55.7202Z" fill="white"/>
<path id="Vector_6" d="M188.915 43.8788C192.046 41.7867 195.727 40.67 199.493 40.67C204.543 40.67 209.386 42.676 212.956 46.2467C216.527 49.8174 218.533 54.6603 218.533 59.71C218.533 63.4758 217.416 67.1569 215.324 70.2881C213.232 73.4192 210.259 75.8596 206.779 77.3007C203.3 78.7417 199.472 79.1188 195.779 78.3841C192.085 77.6495 188.693 75.8361 186.03 73.1733C183.367 70.5105 181.554 67.1179 180.819 63.4245C180.084 59.7311 180.461 55.9028 181.902 52.4237C183.344 48.9446 185.784 45.971 188.915 43.8788Z" fill="white" stroke="black" stroke-width="0.5"/>
<g id="logo-23">
<path id="Vector_7" d="M191.475 58.6568L198.511 50.758C198.561 50.7032 198.587 50.6315 198.585 50.5577V48.7259C198.586 48.6846 198.577 48.6437 198.561 48.6059C198.544 48.568 198.52 48.534 198.489 48.5061C198.459 48.4781 198.423 48.4568 198.384 48.4435C198.345 48.4302 198.303 48.4251 198.262 48.4287L193.416 48.7518C193.377 48.7542 193.338 48.7646 193.302 48.7822C193.267 48.7999 193.235 48.8245 193.209 48.8546C193.183 48.8848 193.164 48.9198 193.152 48.9576C193.139 48.9954 193.135 49.0353 193.139 49.0748L193.197 50.2669C193.2 50.307 193.196 50.3474 193.183 50.3856C193.171 50.4239 193.15 50.4592 193.124 50.4894C193.097 50.5196 193.065 50.5441 193.028 50.5614C192.992 50.5787 192.953 50.5884 192.912 50.59L191.811 50.6481C191.77 50.6517 191.729 50.6469 191.691 50.6339C191.652 50.621 191.616 50.6003 191.586 50.573C191.556 50.5457 191.531 50.5125 191.514 50.4754C191.498 50.4383 191.488 50.3982 191.488 50.3574L191.413 47.6243C191.41 47.5845 191.414 47.5443 191.427 47.5063C191.439 47.4683 191.459 47.4332 191.485 47.403C191.511 47.3728 191.544 47.3483 191.579 47.3308C191.615 47.3133 191.655 47.3033 191.694 47.3012L199.936 46.8134C199.977 46.8103 200.019 46.8158 200.058 46.8295C200.097 46.8431 200.133 46.8648 200.163 46.893C200.193 46.9212 200.217 46.9554 200.234 46.9934C200.25 47.0314 200.259 47.0724 200.259 47.1139V51.1392C200.258 51.2136 200.232 51.2855 200.185 51.3427L194.347 57.8653C194.306 57.9101 194.28 57.966 194.272 58.0258C194.264 58.0855 194.274 58.1464 194.301 58.2004C194.327 58.2544 194.37 58.2991 194.423 58.3287C194.475 58.3582 194.535 58.3713 194.596 58.3661L200.614 57.846C200.654 57.8424 200.695 57.8471 200.733 57.8596C200.771 57.8721 200.806 57.8923 200.837 57.9189C200.867 57.9455 200.891 57.9779 200.909 58.0142C200.926 58.0506 200.936 58.09 200.937 58.1302L200.995 59.4225L191.756 60.0395C191.716 60.0426 191.675 60.0375 191.637 60.0246C191.599 60.0117 191.563 59.9912 191.533 59.9644C191.503 59.9376 191.479 59.9049 191.461 59.8684C191.444 59.8319 191.434 59.7923 191.433 59.752L191.397 58.8701C191.394 58.7915 191.422 58.7149 191.475 58.6568V58.6568Z" fill="#231F20"/>
<path id="Vector_8" d="M207.15 66.2294L200.669 64.9371C200.593 64.9224 200.514 64.9372 200.449 64.9786C200.383 65.0201 200.336 65.085 200.317 65.16L200.084 66.1066C200.074 66.1459 200.072 66.1868 200.079 66.2268C200.085 66.2669 200.099 66.3053 200.12 66.3397C200.142 66.3741 200.17 66.4038 200.203 66.4271C200.237 66.4503 200.274 66.4666 200.314 66.4749L205.641 67.5572C205.706 67.5707 205.765 67.6058 205.809 67.6567C205.852 67.7076 205.877 67.7715 205.88 67.8382L205.971 70.0996C205.977 70.1789 205.951 70.2573 205.9 70.3179C205.848 70.3784 205.775 70.4161 205.696 70.4227L198.217 71.0333C198.138 71.0407 198.065 71.0786 198.014 71.139C197.963 71.1993 197.937 71.2773 197.942 71.3564L198.01 72.3255C198.016 72.4056 198.053 72.48 198.114 72.5327C198.174 72.5854 198.253 72.6119 198.333 72.6066L207.311 71.828C207.39 71.8214 207.464 71.7837 207.515 71.7232C207.567 71.6626 207.592 71.5842 207.586 71.505L207.389 66.5072C207.385 66.441 207.36 66.3779 207.317 66.3276C207.273 66.2774 207.215 66.2428 207.15 66.2294ZM201.238 60.2915L201.202 59.6971L206.449 59.3966C206.501 59.3933 206.553 59.4035 206.6 59.4261C206.647 59.4488 206.687 59.4831 206.717 59.5259L207.363 60.4757C207.399 60.5302 207.416 60.5951 207.412 60.6604C207.408 60.7257 207.383 60.7879 207.34 60.8375L203.787 65.0373C203.74 65.0932 203.674 65.13 203.602 65.1407C203.53 65.1515 203.457 65.1353 203.396 65.0954L202.543 64.5462C202.506 64.5227 202.476 64.4916 202.452 64.455C202.429 64.4184 202.414 64.3772 202.408 64.3342C202.402 64.2912 202.406 64.2475 202.418 64.206C202.431 64.1646 202.453 64.1263 202.481 64.0939L204.778 61.4836C204.817 61.4389 204.842 61.3837 204.85 61.3248C204.858 61.266 204.848 61.2062 204.822 61.153C204.795 61.0997 204.754 61.0555 204.703 61.0258C204.651 60.9961 204.592 60.9823 204.533 60.9861L198.188 61.3802C198.148 61.3833 198.108 61.3784 198.07 61.3659C198.033 61.3534 197.998 61.3335 197.968 61.3073C197.938 61.2812 197.913 61.2493 197.895 61.2136C197.878 61.1778 197.867 61.1389 197.865 61.0992L197.829 60.4853L201.238 60.2915Z" fill="#231F20"/>
</g>
</g>
</svg>
