<svg width="25" height="25" viewBox="0 0 25 25" fill="none" xmlns="http://www.w3.org/2000/svg">
<path d="M19.917 22.4707C17.9004 22.4707 15.8789 22.4707 13.8623 22.4707C11.1426 22.4707 8.42285 22.4707 5.70313 22.4707C5.49805 22.4707 5.29297 22.4707 5.08789 22.4707C5.20996 22.5928 5.33203 22.7148 5.4541 22.8369C5.4541 21.2158 5.4541 19.5947 5.4541 17.9785C5.4541 14.8389 5.4541 11.7041 5.4541 8.56445C5.4541 6.49414 5.4541 4.41895 5.4541 2.34863C5.4541 2.29004 5.4541 2.22656 5.4541 2.16797C5.33203 2.29004 5.20996 2.41211 5.08789 2.53418C7.10449 2.53418 9.12598 2.53418 11.1426 2.53418C13.8623 2.53418 16.582 2.53418 19.3018 2.53418C19.5068 2.53418 19.7119 2.53418 19.917 2.53418C19.7949 2.41211 19.6729 2.29004 19.5508 2.16797C19.5508 3.78906 19.5508 5.41016 19.5508 7.02637C19.5508 10.166 19.5508 13.3008 19.5508 16.4404C19.5508 18.5107 19.5508 20.5859 19.5508 22.6562C19.5508 22.7148 19.5508 22.7783 19.5508 22.8369C19.5508 23.3105 20.2832 23.3105 20.2832 22.8369C20.2832 21.2158 20.2832 19.5947 20.2832 17.9785C20.2832 14.8389 20.2832 11.7041 20.2832 8.56445C20.2832 6.49414 20.2832 4.41895 20.2832 2.34863C20.2832 2.29004 20.2832 2.22656 20.2832 2.16797C20.2832 1.96777 20.1172 1.80176 19.917 1.80176C17.9004 1.80176 15.8789 1.80176 13.8623 1.80176C11.1426 1.80176 8.42285 1.80176 5.70313 1.80176C5.49805 1.80176 5.29297 1.80176 5.08789 1.80176C4.8877 1.80176 4.72168 1.96777 4.72168 2.16797C4.72168 3.78906 4.72168 5.41016 4.72168 7.02637C4.72168 10.166 4.72168 13.3008 4.72168 16.4404C4.72168 18.5107 4.72168 20.5859 4.72168 22.6562C4.72168 22.7148 4.72168 22.7783 4.72168 22.8369C4.72168 23.0371 4.8877 23.2031 5.08789 23.2031C7.10449 23.2031 9.12598 23.2031 11.1426 23.2031C13.8623 23.2031 16.582 23.2031 19.3018 23.2031C19.5068 23.2031 19.7119 23.2031 19.917 23.2031C20.3857 23.2031 20.3857 22.4707 19.917 22.4707Z" fill="white"/>
<path d="M19.5508 0.786133C19.5508 2.26074 19.5508 3.73047 19.5508 5.20508C19.5508 8.28613 19.5508 11.3672 19.5508 14.4482C19.5508 17.1289 19.5508 19.8047 19.5508 22.4853C19.5508 23.0615 19.5508 23.6426 19.5508 24.2187C19.5508 24.6924 20.2832 24.6924 20.2832 24.2187C20.2832 22.7441 20.2832 21.2744 20.2832 19.7998C20.2832 16.7187 20.2832 13.6377 20.2832 10.5566C20.2832 7.87597 20.2832 5.20019 20.2832 2.51953C20.2832 1.94336 20.2832 1.3623 20.2832 0.786133C20.2832 0.3125 19.5508 0.3125 19.5508 0.786133Z" fill="white"/>
<path d="M4.7168 0.786133C4.7168 2.26074 4.7168 3.73047 4.7168 5.20508C4.7168 8.28613 4.7168 11.3672 4.7168 14.4482C4.7168 17.1289 4.7168 19.8047 4.7168 22.4853C4.7168 23.0615 4.7168 23.6426 4.7168 24.2187C4.7168 24.6924 5.44922 24.6924 5.44922 24.2187C5.44922 22.7441 5.44922 21.2744 5.44922 19.7998C5.44922 16.7187 5.44922 13.6377 5.44922 10.5566C5.44922 7.87597 5.44922 5.20019 5.44922 2.51953C5.44922 1.94336 5.44922 1.3623 5.44922 0.786133C5.44922 0.3125 4.7168 0.3125 4.7168 0.786133Z" fill="white"/>
<path d="M4.82421 4.86816C5.44433 5.4541 6.05956 6.04004 6.67968 6.62598C6.82617 6.76758 7.05077 6.76758 7.19726 6.62598C7.81738 6.04004 8.43261 5.4541 9.05273 4.86816C8.88183 4.86816 8.70605 4.86816 8.53515 4.86816C9.15527 5.4541 9.7705 6.04004 10.3906 6.62598C10.5371 6.76758 10.7617 6.76758 10.9082 6.62598C11.5283 6.04004 12.1435 5.4541 12.7637 4.86816C12.5928 4.86816 12.417 4.86816 12.2461 4.86816C12.8662 5.4541 13.4814 6.04004 14.1016 6.62598C14.248 6.76758 14.4726 6.76758 14.6191 6.62598C15.2393 6.04004 15.8545 5.4541 16.4746 4.86816C16.3037 4.86816 16.1279 4.86816 15.957 4.86816C16.5771 5.4541 17.1924 6.04004 17.8125 6.62598C17.959 6.76758 18.1836 6.76758 18.3301 6.62598C18.9502 6.04004 19.5654 5.4541 20.1855 4.86816C20.5273 4.54102 20.0098 4.02344 19.668 4.35059C19.0478 4.93652 18.4326 5.52246 17.8125 6.1084C17.9834 6.1084 18.1592 6.1084 18.3301 6.1084C17.71 5.52246 17.0947 4.93652 16.4746 4.35059C16.3281 4.20898 16.1035 4.20898 15.957 4.35059C15.3369 4.93652 14.7217 5.52246 14.1016 6.1084C14.2725 6.1084 14.4482 6.1084 14.6191 6.1084C13.999 5.52246 13.3838 4.93652 12.7637 4.35059C12.6172 4.20898 12.3926 4.20898 12.2461 4.35059C11.626 4.93652 11.0107 5.52246 10.3906 6.1084C10.5615 6.1084 10.7373 6.1084 10.9082 6.1084C10.2881 5.52246 9.67284 4.93652 9.05273 4.35059C8.90624 4.20898 8.68163 4.20898 8.53515 4.35059C7.91503 4.93652 7.2998 5.52246 6.67968 6.1084C6.85058 6.1084 7.02636 6.1084 7.19726 6.1084C6.57714 5.52246 5.96191 4.93652 5.34179 4.35059C4.99999 4.02344 4.48241 4.54102 4.82421 4.86816Z" fill="white"/>
<path d="M5.34179 20.6494C5.96191 20.0635 6.57714 19.4775 7.19726 18.8916C7.02636 18.8916 6.85058 18.8916 6.67968 18.8916C7.2998 19.4775 7.91503 20.0635 8.53515 20.6494C8.68163 20.791 8.90624 20.791 9.05273 20.6494C9.67284 20.0635 10.2881 19.4775 10.9082 18.8916C10.7373 18.8916 10.5615 18.8916 10.3906 18.8916C11.0107 19.4775 11.626 20.0635 12.2461 20.6494C12.3926 20.791 12.6172 20.791 12.7637 20.6494C13.3838 20.0635 13.999 19.4775 14.6191 18.8916C14.4482 18.8916 14.2725 18.8916 14.1016 18.8916C14.7217 19.4775 15.3369 20.0635 15.957 20.6494C16.1035 20.791 16.3281 20.791 16.4746 20.6494C17.0947 20.0635 17.71 19.4775 18.3301 18.8916C18.1592 18.8916 17.9834 18.8916 17.8125 18.8916C18.4326 19.4775 19.0478 20.0635 19.668 20.6494C20.0098 20.9766 20.5273 20.459 20.1855 20.1318C19.5654 19.5459 18.9502 18.96 18.3301 18.374C18.1836 18.2324 17.959 18.2324 17.8125 18.374C17.1924 18.96 16.5771 19.5459 15.957 20.1318C16.1279 20.1318 16.3037 20.1318 16.4746 20.1318C15.8545 19.5459 15.2393 18.96 14.6191 18.374C14.4726 18.2324 14.248 18.2324 14.1016 18.374C13.4814 18.96 12.8662 19.5459 12.2461 20.1318C12.417 20.1318 12.5928 20.1318 12.7637 20.1318C12.1435 19.5459 11.5283 18.96 10.9082 18.374C10.7617 18.2324 10.5371 18.2324 10.3906 18.374C9.7705 18.96 9.15527 19.5459 8.53515 20.1318C8.70605 20.1318 8.88183 20.1318 9.05273 20.1318C8.43261 19.5459 7.81738 18.96 7.19726 18.374C7.05077 18.2324 6.82617 18.2324 6.67968 18.374C6.05956 18.96 5.44433 19.5459 4.82421 20.1318C4.48241 20.459 4.99999 20.9766 5.34179 20.6494Z" fill="white"/>
<path d="M8.09081 12.7295C9.64843 11.2598 11.2012 9.78516 12.7588 8.31543C12.5879 8.31543 12.4121 8.31543 12.2412 8.31543C13.7988 9.78516 15.3516 11.2598 16.9092 12.7295C17.251 13.0518 17.7685 12.5391 17.4268 12.2119C15.8691 10.7422 14.3164 9.26758 12.7588 7.79785C12.6123 7.65625 12.3877 7.65625 12.2412 7.79785C10.6836 9.26758 9.13085 10.7422 7.57324 12.2119C7.23144 12.5391 7.74902 13.0566 8.09081 12.7295Z" fill="white"/>
<path d="M7.57324 12.7881C9.13085 14.2578 10.6836 15.7324 12.2412 17.2022C12.3877 17.3438 12.6123 17.3438 12.7588 17.2022C14.3164 15.7324 15.8691 14.2578 17.4268 12.7881C17.7685 12.461 17.251 11.9483 16.9092 12.2705C15.3516 13.7402 13.7988 15.2149 12.2412 16.6846C12.4121 16.6846 12.5879 16.6846 12.7588 16.6846C11.2012 15.2149 9.64843 13.7402 8.09081 12.2705C7.74902 11.9434 7.23144 12.461 7.57324 12.7881Z" fill="white"/>
<path d="M10.4297 12.7734C11.206 12.041 11.9824 11.3037 12.7588 10.5713C12.5879 10.5713 12.4121 10.5713 12.2412 10.5713C13.0176 11.3037 13.7939 12.041 14.5703 12.7734C14.9121 13.0957 15.4297 12.583 15.0879 12.2558C14.3115 11.5234 13.5351 10.7861 12.7588 10.0537C12.6123 9.91211 12.3877 9.91211 12.2412 10.0537C11.4648 10.7861 10.6885 11.5234 9.9121 12.2558C9.57031 12.5781 10.0879 13.0957 10.4297 12.7734Z" fill="white"/>
<path d="M9.9121 12.8027C10.6885 13.5352 11.4648 14.2725 12.2412 15.0049C12.3877 15.1465 12.6123 15.1465 12.7588 15.0049C13.5351 14.2725 14.3115 13.5352 15.0879 12.8027C15.4297 12.4756 14.9121 11.9629 14.5703 12.2852C13.7939 13.0176 13.0176 13.7549 12.2412 14.4873C12.4121 14.4873 12.5879 14.4873 12.7588 14.4873C11.9824 13.7549 11.206 13.0176 10.4297 12.2852C10.0879 11.958 9.57031 12.4756 9.9121 12.8027Z" fill="white"/>
</svg>
