<svg width="24" height="20" viewBox="0 0 24 20" fill="none" xmlns="http://www.w3.org/2000/svg">
<path fill-rule="evenodd" clip-rule="evenodd" d="M18.384 19.779C18.706 20.007 19.121 20.064 19.491 19.924C19.861 19.783 20.133 19.467 20.215 19.084C21.084 15 23.192 4.663 23.983 0.947996C24.043 0.667996 23.943 0.376996 23.723 0.189996C23.503 0.0029957 23.198 -0.0510044 22.926 0.0499956C18.733 1.602 5.81997 6.44699 0.541971 8.39999C0.206971 8.52399 -0.0110294 8.846 -2.93924e-05 9.199C0.0119706 9.553 0.249971 9.86 0.592971 9.963C2.95997 10.671 6.06697 11.656 6.06697 11.656C6.06697 11.656 7.51897 16.041 8.27597 18.271C8.37097 18.551 8.58997 18.771 8.87897 18.847C9.16697 18.922 9.47497 18.843 9.68997 18.64C10.906 17.492 12.786 15.717 12.786 15.717C12.786 15.717 16.358 18.336 18.384 19.779V19.779ZM7.37397 11.102L9.05297 16.64L9.42597 13.133C9.42597 13.133 15.913 7.282 19.611 3.947C19.719 3.849 19.734 3.685 19.644 3.57C19.555 3.455 19.391 3.428 19.268 3.506C14.982 6.243 7.37397 11.102 7.37397 11.102Z" fill="white"/>
</svg>
